<svg width="1439" height="100" viewBox="0 0 1439 100" fill="none" xmlns="http://www.w3.org/2000/svg">
<rect y="29" width="31" height="30" rx="7" fill="#F94A3D"/>
<path d="M15.1 34.344H7.736V54H15.1C21.372 54 25.404 49.996 25.404 44.172C25.404 38.32 21.372 34.344 15.1 34.344ZM12.524 49.856V38.432H14.792C18.404 38.432 20.532 40.56 20.532 44.172C20.532 47.784 18.404 49.856 14.792 49.856H12.524Z" fill="white"/>
<path d="M41.86 55H46.99V46.48H53.41V42.49H46.99V38.05H55.57V33.94H41.86V55ZM56.9463 46.6C56.9463 51.88 60.2163 55.24 64.3263 55.24C66.7863 55.24 68.5563 54.13 69.4863 52.6V55H74.6163V32.8H69.4863V40.57C68.4663 39.04 66.5463 38.02 64.3263 38.02C60.2163 38.02 56.9463 41.32 56.9463 46.6ZM69.4863 46.63C69.4863 49.3 67.7763 50.77 65.8263 50.77C63.9063 50.77 62.1663 49.27 62.1663 46.6C62.1663 43.93 63.9063 42.49 65.8263 42.49C67.7763 42.49 69.4863 43.96 69.4863 46.63ZM85.4076 42.13C87.1176 42.13 88.5576 43.18 88.5576 45.01H82.1376C82.4376 43.15 83.7276 42.13 85.4076 42.13ZM93.4176 49.45H87.9576C87.5376 50.35 86.7276 51.07 85.2876 51.07C83.6376 51.07 82.2876 50.05 82.1076 47.86H93.7176C93.7776 47.35 93.8076 46.84 93.8076 46.36C93.8076 41.26 90.3576 38.02 85.4676 38.02C80.4876 38.02 77.0076 41.32 77.0076 46.63C77.0076 51.94 80.5476 55.24 85.4676 55.24C89.6376 55.24 92.6076 52.72 93.4176 49.45ZM96.2139 55H101.344V32.8H96.2139V55ZM104.762 55H109.892V38.26H104.762V55ZM107.342 36.52C109.142 36.52 110.372 35.29 110.372 33.76C110.372 32.2 109.142 30.97 107.342 30.97C105.512 30.97 104.282 32.2 104.282 33.76C104.282 35.29 105.512 36.52 107.342 36.52ZM111.719 38.26L117.659 55H123.989L129.929 38.26H124.469L120.839 50.2L117.209 38.26H111.719ZM139.169 42.13C140.879 42.13 142.319 43.18 142.319 45.01H135.899C136.199 43.15 137.489 42.13 139.169 42.13ZM147.179 49.45H141.719C141.299 50.35 140.489 51.07 139.049 51.07C137.399 51.07 136.049 50.05 135.869 47.86H147.479C147.539 47.35 147.569 46.84 147.569 46.36C147.569 41.26 144.119 38.02 139.229 38.02C134.249 38.02 130.769 41.32 130.769 46.63C130.769 51.94 134.309 55.24 139.229 55.24C143.399 55.24 146.369 52.72 147.179 49.45ZM155.105 47.23C155.105 44.35 156.515 43.51 158.945 43.51H160.355V38.08C158.105 38.08 156.275 39.28 155.105 41.05V38.26H149.975V55H155.105V47.23ZM170.217 48.73L166.347 38.26H160.617L167.427 54.43L163.587 62.95H169.107L179.607 38.26H174.057L170.217 48.73Z" fill="#F94A3D"/>
<path d="M395.368 50H396.824V38.848H395.368V43.744H389.688V38.848H388.232V50H389.688V44.944H395.368V50ZM407.615 45.6C407.615 42.832 405.679 41.088 403.183 41.088C400.703 41.088 398.751 42.832 398.751 45.6C398.751 48.384 400.639 50.144 403.119 50.144C405.615 50.144 407.615 48.384 407.615 45.6ZM400.239 45.6C400.239 43.392 401.631 42.352 403.167 42.352C404.671 42.352 406.127 43.392 406.127 45.6C406.127 47.824 404.639 48.864 403.119 48.864C401.599 48.864 400.239 47.824 400.239 45.6ZM422.185 50H423.625V44.832C423.625 42.32 422.073 41.072 420.073 41.072C418.729 41.072 417.481 41.76 416.969 43.024C416.393 41.712 415.193 41.072 413.753 41.072C412.601 41.072 411.561 41.568 410.985 42.496V41.232H409.529V50H410.985V45.168C410.985 43.28 411.993 42.336 413.465 42.336C414.905 42.336 415.865 43.248 415.865 45.04V50H417.305V45.168C417.305 43.28 418.313 42.336 419.785 42.336C421.225 42.336 422.185 43.248 422.185 45.04V50ZM429.741 42.32C431.245 42.32 432.525 43.264 432.509 44.976H426.973C427.133 43.264 428.317 42.32 429.741 42.32ZM433.837 47.296H432.269C431.949 48.24 431.117 48.912 429.805 48.912C428.317 48.912 427.069 47.936 426.957 46.16H433.965C433.997 45.856 434.013 45.6 434.013 45.28C434.013 42.88 432.349 41.088 429.805 41.088C427.245 41.088 425.469 42.832 425.469 45.6C425.469 48.384 427.309 50.144 429.805 50.144C431.981 50.144 433.389 48.896 433.837 47.296Z" fill="#212244"/>
<path d="M469.824 47.52H464.96L464.064 50H462.528L466.56 38.912H468.24L472.256 50H470.72L469.824 47.52ZM469.408 46.336L467.392 40.704L465.376 46.336H469.408ZM475.469 42.864C475.768 42.3413 476.205 41.9147 476.781 41.584C477.357 41.2533 478.013 41.088 478.749 41.088C479.539 41.088 480.248 41.2747 480.877 41.648C481.507 42.0213 482.003 42.5493 482.365 43.232C482.728 43.904 482.909 44.688 482.909 45.584C482.909 46.4693 482.728 47.2587 482.365 47.952C482.003 48.6453 481.501 49.184 480.861 49.568C480.232 49.952 479.528 50.144 478.749 50.144C477.992 50.144 477.325 49.9787 476.749 49.648C476.184 49.3173 475.757 48.896 475.469 48.384V50H474.013V38.16H475.469V42.864ZM481.421 45.584C481.421 44.9227 481.288 44.3467 481.021 43.856C480.755 43.3653 480.392 42.992 479.933 42.736C479.485 42.48 478.989 42.352 478.445 42.352C477.912 42.352 477.416 42.4853 476.957 42.752C476.509 43.008 476.147 43.3867 475.869 43.888C475.603 44.3787 475.469 44.9493 475.469 45.6C475.469 46.2613 475.603 46.8427 475.869 47.344C476.147 47.8347 476.509 48.2133 476.957 48.48C477.416 48.736 477.912 48.864 478.445 48.864C478.989 48.864 479.485 48.736 479.933 48.48C480.392 48.2133 480.755 47.8347 481.021 47.344C481.288 46.8427 481.421 46.256 481.421 45.584ZM488.65 50.144C487.828 50.144 487.082 49.9573 486.41 49.584C485.748 49.2107 485.226 48.6827 484.842 48C484.468 47.3067 484.282 46.5067 484.282 45.6C484.282 44.704 484.474 43.9147 484.858 43.232C485.252 42.5387 485.786 42.0107 486.458 41.648C487.13 41.2747 487.882 41.088 488.714 41.088C489.546 41.088 490.298 41.2747 490.97 41.648C491.642 42.0107 492.17 42.5333 492.554 43.216C492.948 43.8987 493.146 44.6933 493.146 45.6C493.146 46.5067 492.943 47.3067 492.538 48C492.143 48.6827 491.604 49.2107 490.922 49.584C490.239 49.9573 489.482 50.144 488.65 50.144ZM488.65 48.864C489.172 48.864 489.663 48.7413 490.122 48.496C490.58 48.2507 490.948 47.8827 491.226 47.392C491.514 46.9013 491.658 46.304 491.658 45.6C491.658 44.896 491.519 44.2987 491.242 43.808C490.964 43.3173 490.602 42.9547 490.154 42.72C489.706 42.4747 489.22 42.352 488.698 42.352C488.164 42.352 487.674 42.4747 487.226 42.72C486.788 42.9547 486.436 43.3173 486.17 43.808C485.903 44.2987 485.77 44.896 485.77 45.6C485.77 46.3147 485.898 46.9173 486.154 47.408C486.42 47.8987 486.772 48.2667 487.21 48.512C487.647 48.7467 488.127 48.864 488.65 48.864ZM502.836 41.232V50H501.38V48.704C501.103 49.152 500.713 49.504 500.212 49.76C499.721 50.0053 499.177 50.128 498.58 50.128C497.897 50.128 497.284 49.9893 496.74 49.712C496.196 49.424 495.764 48.9973 495.444 48.432C495.135 47.8667 494.98 47.1787 494.98 46.368V41.232H496.42V46.176C496.42 47.04 496.639 47.7067 497.076 48.176C497.513 48.6347 498.111 48.864 498.868 48.864C499.647 48.864 500.26 48.624 500.708 48.144C501.156 47.664 501.38 46.9653 501.38 46.048V41.232H502.836ZM507.071 42.432V47.6C507.071 48.0267 507.161 48.3307 507.343 48.512C507.524 48.6827 507.839 48.768 508.286 48.768H509.359V50H508.047C507.236 50 506.628 49.8133 506.223 49.44C505.817 49.0667 505.615 48.4533 505.615 47.6V42.432H504.479V41.232H505.615V39.024H507.071V41.232H509.359V42.432H507.071Z" fill="#212244"/>
<path d="M545.48 46.96C545.48 42.832 539.464 44.624 539.464 41.744C539.464 40.544 540.408 39.92 541.608 39.952C542.968 39.968 543.672 40.816 543.768 41.568H545.368C545.192 39.872 543.8 38.704 541.672 38.704C539.464 38.704 537.976 39.952 537.976 41.792C537.976 45.936 544.008 44.016 544.008 47.024C544.008 48.08 543.176 48.88 541.768 48.88C540.216 48.88 539.56 47.952 539.464 47.024H537.912C537.944 48.864 539.528 50.112 541.768 50.112C544.184 50.112 545.48 48.544 545.48 46.96ZM547.623 50H549.079V45.152C549.079 43.264 550.103 42.336 551.591 42.336C553.063 42.336 554.039 43.248 554.039 45.04V50H555.479V44.832C555.479 42.32 553.927 41.072 551.975 41.072C550.743 41.072 549.655 41.568 549.079 42.496V38.16H547.623V50ZM566.177 45.6C566.177 42.832 564.241 41.088 561.745 41.088C559.265 41.088 557.313 42.832 557.313 45.6C557.313 48.384 559.201 50.144 561.681 50.144C564.177 50.144 566.177 48.384 566.177 45.6ZM558.801 45.6C558.801 43.392 560.193 42.352 561.729 42.352C563.233 42.352 564.689 43.392 564.689 45.6C564.689 47.824 563.201 48.864 561.681 48.864C560.161 48.864 558.801 47.824 558.801 45.6ZM569.547 42.848V41.232H568.091V54.16H569.547V48.384C570.091 49.28 571.227 50.144 572.827 50.144C575.179 50.144 576.987 48.304 576.987 45.584C576.987 42.848 575.179 41.088 572.827 41.088C571.227 41.088 570.075 41.92 569.547 42.848ZM575.499 45.584C575.499 47.648 574.139 48.864 572.523 48.864C570.939 48.864 569.547 47.664 569.547 45.6C569.547 43.568 570.939 42.352 572.523 42.352C574.139 42.352 575.499 43.52 575.499 45.584Z" fill="#212244"/>
<path d="M606.232 50H607.688V44.976H611.624V43.792H607.688V40.032H612.536V38.848H606.232V50ZM622.615 45.6C622.615 42.832 620.679 41.088 618.183 41.088C615.703 41.088 613.751 42.832 613.751 45.6C613.751 48.384 615.639 50.144 618.119 50.144C620.615 50.144 622.615 48.384 622.615 45.6ZM615.239 45.6C615.239 43.392 616.631 42.352 618.167 42.352C619.671 42.352 621.127 43.392 621.127 45.6C621.127 47.824 619.639 48.864 618.119 48.864C616.599 48.864 615.239 47.824 615.239 45.6ZM632.849 45.6C632.849 42.832 630.913 41.088 628.417 41.088C625.937 41.088 623.985 42.832 623.985 45.6C623.985 48.384 625.873 50.144 628.353 50.144C630.849 50.144 632.849 48.384 632.849 45.6ZM625.473 45.6C625.473 43.392 626.865 42.352 628.401 42.352C629.905 42.352 631.361 43.392 631.361 45.6C631.361 47.824 629.873 48.864 628.353 48.864C626.833 48.864 625.473 47.824 625.473 45.6ZM634.219 45.584C634.219 48.304 636.027 50.144 638.379 50.144C639.979 50.144 641.115 49.328 641.643 48.352V50H643.115V38.16H641.643V42.8C641.035 41.792 639.771 41.088 638.395 41.088C636.027 41.088 634.219 42.848 634.219 45.584ZM641.643 45.6C641.643 47.664 640.267 48.864 638.667 48.864C637.067 48.864 635.707 47.648 635.707 45.584C635.707 43.52 637.067 42.352 638.667 42.352C640.267 42.352 641.643 43.568 641.643 45.6Z" fill="#212244"/>
<path d="M679.2 42.128C679.2 43.376 678.48 44.272 676.832 44.272H674.688V40.048H676.832C678.496 40.048 679.2 40.864 679.2 42.128ZM673.232 38.848V50H674.688V45.44H676.448L679.104 50H680.848L678.048 45.328C679.92 44.912 680.704 43.552 680.704 42.128C680.704 40.304 679.456 38.848 676.832 38.848H673.232ZM686.694 42.32C688.198 42.32 689.478 43.264 689.462 44.976H683.926C684.086 43.264 685.27 42.32 686.694 42.32ZM690.79 47.296H689.222C688.902 48.24 688.07 48.912 686.758 48.912C685.27 48.912 684.022 47.936 683.91 46.16H690.918C690.95 45.856 690.966 45.6 690.966 45.28C690.966 42.88 689.302 41.088 686.758 41.088C684.198 41.088 682.422 42.832 682.422 45.6C682.422 48.384 684.262 50.144 686.758 50.144C688.934 50.144 690.342 48.896 690.79 47.296ZM692.344 45.6C692.344 48.384 694.12 50.144 696.616 50.144C698.792 50.144 700.216 48.928 700.664 47.184H699.096C698.776 48.288 697.912 48.912 696.616 48.912C695.016 48.912 693.832 47.776 693.832 45.6C693.832 43.456 695.016 42.32 696.616 42.32C697.912 42.32 698.792 42.992 699.096 44.048H700.664C700.216 42.208 698.792 41.088 696.616 41.088C694.12 41.088 692.344 42.848 692.344 45.6ZM702.607 50H704.063V41.232H702.607V50ZM703.359 39.808C703.887 39.808 704.319 39.376 704.319 38.816C704.319 38.256 703.887 37.824 703.359 37.824C702.799 37.824 702.367 38.256 702.367 38.816C702.367 39.376 702.799 39.808 703.359 39.808ZM708.001 42.848V41.232H706.545V54.16H708.001V48.384C708.545 49.28 709.681 50.144 711.281 50.144C713.633 50.144 715.441 48.304 715.441 45.584C715.441 42.848 713.633 41.088 711.281 41.088C709.681 41.088 708.529 41.92 708.001 42.848ZM713.953 45.584C713.953 47.648 712.593 48.864 710.977 48.864C709.393 48.864 708.001 47.664 708.001 45.6C708.001 43.568 709.393 42.352 710.977 42.352C712.593 42.352 713.953 43.52 713.953 45.584ZM721.085 42.32C722.589 42.32 723.869 43.264 723.853 44.976H718.317C718.477 43.264 719.661 42.32 721.085 42.32ZM725.181 47.296H723.613C723.293 48.24 722.461 48.912 721.149 48.912C719.661 48.912 718.413 47.936 718.301 46.16H725.309C725.341 45.856 725.357 45.6 725.357 45.28C725.357 42.88 723.693 41.088 721.149 41.088C718.589 41.088 716.813 42.832 716.813 45.6C716.813 48.384 718.653 50.144 721.149 50.144C723.325 50.144 724.733 48.896 725.181 47.296ZM733.583 47.616C733.519 44.48 728.431 45.616 728.431 43.536C728.431 42.832 729.071 42.32 730.143 42.32C731.311 42.32 731.983 42.96 732.047 43.84H733.503C733.407 42.128 732.127 41.088 730.191 41.088C728.239 41.088 726.975 42.192 726.975 43.536C726.975 46.8 732.159 45.664 732.159 47.616C732.159 48.336 731.519 48.912 730.367 48.912C729.135 48.912 728.383 48.272 728.303 47.424H726.799C726.895 49.024 728.335 50.144 730.383 50.144C732.319 50.144 733.583 49.056 733.583 47.616Z" fill="#212244"/>
<path d="M762.688 44.416C762.688 47.76 765.136 50.096 768.256 50.096C770.672 50.096 772.592 48.896 773.424 46.752H771.68C771.072 48.08 769.888 48.832 768.256 48.832C765.92 48.832 764.176 47.136 764.176 44.416C764.176 41.68 765.92 39.984 768.256 39.984C769.888 39.984 771.072 40.736 771.68 42.08H773.424C772.592 39.92 770.672 38.704 768.256 38.704C765.136 38.704 762.688 41.072 762.688 44.416ZM783.911 45.6C783.911 42.832 781.975 41.088 779.479 41.088C776.999 41.088 775.047 42.832 775.047 45.6C775.047 48.384 776.935 50.144 779.415 50.144C781.911 50.144 783.911 48.384 783.911 45.6ZM776.535 45.6C776.535 43.392 777.927 42.352 779.463 42.352C780.967 42.352 782.423 43.392 782.423 45.6C782.423 47.824 780.935 48.864 779.415 48.864C777.895 48.864 776.535 47.824 776.535 45.6ZM792.242 50H793.682V44.832C793.682 42.32 792.13 41.072 790.098 41.072C788.914 41.072 787.858 41.568 787.282 42.48V41.232H785.826V50H787.282V45.152C787.282 43.264 788.306 42.336 789.794 42.336C791.266 42.336 792.242 43.248 792.242 45.04V50ZM796.38 47.6C796.38 49.36 797.26 50 798.812 50H800.124V48.768H799.052C798.156 48.768 797.836 48.464 797.836 47.6V42.432H800.124V41.232H797.836V39.024H796.38V41.232H795.244V42.432H796.38V47.6ZM801.344 45.584C801.344 48.304 803.152 50.144 805.488 50.144C807.104 50.144 808.24 49.312 808.768 48.368V50H810.24V41.232H808.768V42.832C808.256 41.92 807.136 41.088 805.504 41.088C803.152 41.088 801.344 42.848 801.344 45.584ZM808.768 45.6C808.768 47.664 807.392 48.864 805.792 48.864C804.192 48.864 802.832 47.648 802.832 45.584C802.832 43.52 804.192 42.352 805.792 42.352C807.392 42.352 808.768 43.568 808.768 45.6ZM812.157 45.6C812.157 48.384 813.933 50.144 816.429 50.144C818.605 50.144 820.029 48.928 820.477 47.184H818.909C818.589 48.288 817.725 48.912 816.429 48.912C814.829 48.912 813.645 47.776 813.645 45.6C813.645 43.456 814.829 42.32 816.429 42.32C817.725 42.32 818.605 42.992 818.909 44.048H820.477C820.029 42.208 818.605 41.088 816.429 41.088C813.933 41.088 812.157 42.848 812.157 45.6ZM822.74 47.6C822.74 49.36 823.62 50 825.172 50H826.484V48.768H825.411C824.516 48.768 824.196 48.464 824.196 47.6V42.432H826.484V41.232H824.196V39.024H822.74V41.232H821.604V42.432H822.74V47.6Z" fill="#212244"/>
<rect x="1330" y="24" width="109" height="40" rx="10" fill="#F94A3D"/>
<path d="M1366.48 46.96C1366.48 42.832 1360.46 44.624 1360.46 41.744C1360.46 40.544 1361.41 39.92 1362.61 39.952C1363.97 39.968 1364.67 40.816 1364.77 41.568H1366.37C1366.19 39.872 1364.8 38.704 1362.67 38.704C1360.46 38.704 1358.98 39.952 1358.98 41.792C1358.98 45.936 1365.01 44.016 1365.01 47.024C1365.01 48.08 1364.18 48.88 1362.77 48.88C1361.22 48.88 1360.56 47.952 1360.46 47.024H1358.91C1358.94 48.864 1360.53 50.112 1362.77 50.112C1365.18 50.112 1366.48 48.544 1366.48 46.96ZM1368.46 50H1369.92V41.232H1368.46V50ZM1369.21 39.808C1369.74 39.808 1370.17 39.376 1370.17 38.816C1370.17 38.256 1369.74 37.824 1369.21 37.824C1368.65 37.824 1368.22 38.256 1368.22 38.816C1368.22 39.376 1368.65 39.808 1369.21 39.808ZM1371.7 45.584C1371.7 48.304 1373.5 50.144 1375.86 50.144C1377.46 50.144 1378.59 49.296 1379.12 48.352V50.192C1379.12 52.064 1377.95 53.056 1376.4 53.056C1374.96 53.056 1373.92 52.336 1373.6 51.28H1372.16C1372.45 53.152 1374.1 54.32 1376.4 54.32C1378.98 54.32 1380.59 52.608 1380.59 50.192V41.232H1379.12V42.832C1378.61 41.888 1377.46 41.088 1375.86 41.088C1373.5 41.088 1371.7 42.848 1371.7 45.584ZM1379.12 45.6C1379.12 47.664 1377.74 48.864 1376.14 48.864C1374.54 48.864 1373.18 47.648 1373.18 45.584C1373.18 43.52 1374.54 42.352 1376.14 42.352C1377.74 42.352 1379.12 43.568 1379.12 45.6ZM1389.31 50H1390.75V44.832C1390.75 42.32 1389.2 41.072 1387.16 41.072C1385.98 41.072 1384.92 41.568 1384.35 42.48V41.232H1382.89V50H1384.35V45.152C1384.35 43.264 1385.37 42.336 1386.86 42.336C1388.33 42.336 1389.31 43.248 1389.31 45.04V50ZM1397.07 50H1398.53V38.848H1397.07V50ZM1407.27 50H1408.71V44.832C1408.71 42.32 1407.15 41.072 1405.12 41.072C1403.94 41.072 1402.88 41.568 1402.31 42.48V41.232H1400.85V50H1402.31V45.152C1402.31 43.264 1403.33 42.336 1404.82 42.336C1406.29 42.336 1407.27 43.248 1407.27 45.04V50Z" fill="white"/>
<g filter="url(#filter0_d_3119_3100)">
<path d="M1035 34C1035 28.4772 1039.48 24 1045 24H1247C1252.52 24 1257 28.4772 1257 34V54C1257 59.5228 1252.52 64 1247 64H1045C1039.48 64 1035 59.5228 1035 54V34Z" fill="white"/>
<path d="M1035.5 34C1035.5 28.7533 1039.75 24.5 1045 24.5H1247C1252.25 24.5 1256.5 28.7533 1256.5 34V54C1256.5 59.2467 1252.25 63.5 1247 63.5H1045C1039.75 63.5 1035.5 59.2467 1035.5 54V34Z" stroke="#69697B" stroke-opacity="0.1"/>
</g>
<path d="M1057.17 49.098C1056.53 49.098 1055.95 48.986 1055.44 48.762C1054.93 48.5287 1054.54 48.2113 1054.25 47.81C1053.96 47.3993 1053.81 46.928 1053.8 46.396H1055.16C1055.2 46.8533 1055.39 47.2407 1055.72 47.558C1056.05 47.866 1056.54 48.02 1057.17 48.02C1057.78 48.02 1058.25 47.8707 1058.6 47.572C1058.95 47.264 1059.13 46.872 1059.13 46.396C1059.13 46.0227 1059.03 45.7193 1058.82 45.486C1058.62 45.2527 1058.36 45.0753 1058.05 44.954C1057.75 44.8327 1057.33 44.702 1056.81 44.562C1056.16 44.394 1055.65 44.226 1055.25 44.058C1054.87 43.89 1054.54 43.6287 1054.26 43.274C1053.99 42.91 1053.85 42.4247 1053.85 41.818C1053.85 41.286 1053.99 40.8147 1054.26 40.404C1054.53 39.9933 1054.91 39.676 1055.39 39.452C1055.89 39.228 1056.45 39.116 1057.09 39.116C1058 39.116 1058.75 39.3447 1059.33 39.802C1059.92 40.2593 1060.25 40.866 1060.32 41.622H1058.92C1058.88 41.2487 1058.68 40.922 1058.33 40.642C1057.99 40.3527 1057.53 40.208 1056.96 40.208C1056.43 40.208 1056 40.348 1055.66 40.628C1055.32 40.8987 1055.16 41.2813 1055.16 41.776C1055.16 42.1307 1055.25 42.42 1055.45 42.644C1055.66 42.868 1055.9 43.0407 1056.19 43.162C1056.49 43.274 1056.91 43.4047 1057.44 43.554C1058.08 43.7313 1058.6 43.9087 1058.99 44.086C1059.38 44.254 1059.72 44.52 1060 44.884C1060.28 45.2387 1060.42 45.724 1060.42 46.34C1060.42 46.816 1060.29 47.264 1060.04 47.684C1059.79 48.104 1059.42 48.4447 1058.92 48.706C1058.43 48.9673 1057.84 49.098 1057.17 49.098ZM1069.29 44.87C1069.29 45.1127 1069.28 45.3693 1069.25 45.64H1063.12C1063.17 46.396 1063.42 46.9887 1063.89 47.418C1064.37 47.838 1064.94 48.048 1065.61 48.048C1066.16 48.048 1066.62 47.922 1066.98 47.67C1067.36 47.4087 1067.62 47.0633 1067.77 46.634H1069.14C1068.94 47.3713 1068.52 47.9733 1067.91 48.44C1067.29 48.8973 1066.53 49.126 1065.61 49.126C1064.88 49.126 1064.23 48.9627 1063.65 48.636C1063.08 48.3093 1062.64 47.8473 1062.31 47.25C1061.98 46.6433 1061.82 45.9433 1061.82 45.15C1061.82 44.3567 1061.98 43.6613 1062.29 43.064C1062.61 42.4667 1063.06 42.0093 1063.62 41.692C1064.2 41.3653 1064.87 41.202 1065.61 41.202C1066.34 41.202 1066.98 41.3607 1067.54 41.678C1068.1 41.9953 1068.53 42.434 1068.83 42.994C1069.14 43.5447 1069.29 44.17 1069.29 44.87ZM1067.98 44.604C1067.98 44.1187 1067.87 43.7033 1067.66 43.358C1067.44 43.0033 1067.15 42.7373 1066.77 42.56C1066.41 42.3733 1066 42.28 1065.56 42.28C1064.91 42.28 1064.36 42.4853 1063.9 42.896C1063.46 43.3067 1063.2 43.876 1063.13 44.604H1067.98ZM1070.5 45.136C1070.5 44.352 1070.66 43.666 1070.98 43.078C1071.29 42.4807 1071.73 42.0187 1072.28 41.692C1072.84 41.3653 1073.46 41.202 1074.14 41.202C1074.81 41.202 1075.4 41.3467 1075.89 41.636C1076.39 41.9253 1076.75 42.2893 1077 42.728V41.328H1078.28V49H1077V47.572C1076.74 48.02 1076.37 48.3933 1075.86 48.692C1075.37 48.9813 1074.79 49.126 1074.13 49.126C1073.45 49.126 1072.83 48.958 1072.28 48.622C1071.73 48.286 1071.29 47.8147 1070.98 47.208C1070.66 46.6013 1070.5 45.9107 1070.5 45.136ZM1077 45.15C1077 44.5713 1076.88 44.0673 1076.65 43.638C1076.41 43.2087 1076.1 42.882 1075.69 42.658C1075.3 42.4247 1074.87 42.308 1074.39 42.308C1073.92 42.308 1073.48 42.42 1073.09 42.644C1072.7 42.868 1072.39 43.1947 1072.15 43.624C1071.92 44.0533 1071.8 44.5573 1071.8 45.136C1071.8 45.724 1071.92 46.2373 1072.15 46.676C1072.39 47.1053 1072.7 47.4367 1073.09 47.67C1073.48 47.894 1073.92 48.006 1074.39 48.006C1074.87 48.006 1075.3 47.894 1075.69 47.67C1076.1 47.4367 1076.41 47.1053 1076.65 46.676C1076.88 46.2373 1077 45.7287 1077 45.15ZM1081.71 42.574C1081.94 42.1353 1082.25 41.7947 1082.66 41.552C1083.08 41.3093 1083.59 41.188 1084.19 41.188V42.504H1083.85C1082.43 42.504 1081.71 43.2787 1081.71 44.828V49H1080.44V41.328H1081.71V42.574ZM1085.18 45.15C1085.18 44.3567 1085.34 43.666 1085.66 43.078C1085.98 42.4807 1086.42 42.0187 1086.98 41.692C1087.55 41.3653 1088.19 41.202 1088.92 41.202C1089.86 41.202 1090.64 41.4307 1091.25 41.888C1091.86 42.3453 1092.27 42.98 1092.46 43.792H1091.09C1090.96 43.3253 1090.7 42.9567 1090.32 42.686C1089.95 42.4153 1089.48 42.28 1088.92 42.28C1088.19 42.28 1087.61 42.532 1087.16 43.036C1086.71 43.5307 1086.49 44.2353 1086.49 45.15C1086.49 46.074 1086.71 46.788 1087.16 47.292C1087.61 47.796 1088.19 48.048 1088.92 48.048C1089.48 48.048 1089.95 47.9173 1090.32 47.656C1090.7 47.3947 1090.95 47.0213 1091.09 46.536H1092.46C1092.26 47.32 1091.85 47.95 1091.23 48.426C1090.62 48.8927 1089.85 49.126 1088.92 49.126C1088.19 49.126 1087.55 48.9627 1086.98 48.636C1086.42 48.3093 1085.98 47.8473 1085.66 47.25C1085.34 46.6527 1085.18 45.9527 1085.18 45.15ZM1097.97 41.188C1098.55 41.188 1099.07 41.314 1099.54 41.566C1100.01 41.8087 1100.37 42.1773 1100.63 42.672C1100.9 43.1667 1101.04 43.7687 1101.04 44.478V49H1099.78V44.66C1099.78 43.8947 1099.59 43.3113 1099.2 42.91C1098.82 42.4993 1098.3 42.294 1097.64 42.294C1096.96 42.294 1096.43 42.504 1096.03 42.924C1095.63 43.344 1095.44 43.9553 1095.44 44.758V49H1094.16V38.64H1095.44V42.42C1095.69 42.028 1096.04 41.7247 1096.47 41.51C1096.92 41.2953 1097.42 41.188 1097.97 41.188ZM1113.46 41.328L1108.84 52.612H1107.52L1109.04 48.916L1105.94 41.328H1107.36L1109.76 47.544L1112.14 41.328H1113.46ZM1118.09 49.126C1117.37 49.126 1116.71 48.9627 1116.13 48.636C1115.55 48.3093 1115.09 47.8473 1114.75 47.25C1114.43 46.6433 1114.26 45.9433 1114.26 45.15C1114.26 44.366 1114.43 43.6753 1114.77 43.078C1115.11 42.4713 1115.58 42.0093 1116.17 41.692C1116.76 41.3653 1117.41 41.202 1118.14 41.202C1118.87 41.202 1119.53 41.3653 1120.12 41.692C1120.7 42.0093 1121.17 42.4667 1121.5 43.064C1121.85 43.6613 1122.02 44.3567 1122.02 45.15C1122.02 45.9433 1121.84 46.6433 1121.49 47.25C1121.14 47.8473 1120.67 48.3093 1120.07 48.636C1119.48 48.9627 1118.81 49.126 1118.09 49.126ZM1118.09 48.006C1118.54 48.006 1118.97 47.8987 1119.37 47.684C1119.78 47.4693 1120.1 47.1473 1120.34 46.718C1120.59 46.2887 1120.72 45.766 1120.72 45.15C1120.72 44.534 1120.6 44.0113 1120.35 43.582C1120.11 43.1527 1119.79 42.8353 1119.4 42.63C1119.01 42.4153 1118.59 42.308 1118.13 42.308C1117.66 42.308 1117.23 42.4153 1116.84 42.63C1116.46 42.8353 1116.15 43.1527 1115.92 43.582C1115.68 44.0113 1115.57 44.534 1115.57 45.15C1115.57 45.7753 1115.68 46.3027 1115.9 46.732C1116.14 47.1613 1116.44 47.4833 1116.83 47.698C1117.21 47.9033 1117.63 48.006 1118.09 48.006ZM1130.5 41.328V49H1129.23V47.866C1128.98 48.258 1128.64 48.566 1128.2 48.79C1127.77 49.0047 1127.3 49.112 1126.78 49.112C1126.18 49.112 1125.64 48.9907 1125.17 48.748C1124.69 48.496 1124.31 48.1227 1124.03 47.628C1123.76 47.1333 1123.63 46.5313 1123.63 45.822V41.328H1124.89V45.654C1124.89 46.41 1125.08 46.9933 1125.46 47.404C1125.84 47.8053 1126.36 48.006 1127.03 48.006C1127.71 48.006 1128.25 47.796 1128.64 47.376C1129.03 46.956 1129.23 46.3447 1129.23 45.542V41.328H1130.5ZM1133.92 42.574C1134.15 42.1353 1134.47 41.7947 1134.88 41.552C1135.3 41.3093 1135.8 41.188 1136.4 41.188V42.504H1136.07C1134.64 42.504 1133.92 43.2787 1133.92 44.828V49H1132.65V41.328H1133.92V42.574ZM1142.26 40.082C1142.02 40.082 1141.82 39.998 1141.65 39.83C1141.48 39.662 1141.4 39.4567 1141.4 39.214C1141.4 38.9713 1141.48 38.766 1141.65 38.598C1141.82 38.43 1142.02 38.346 1142.26 38.346C1142.5 38.346 1142.69 38.43 1142.85 38.598C1143.02 38.766 1143.1 38.9713 1143.1 39.214C1143.1 39.4567 1143.02 39.662 1142.85 39.83C1142.69 39.998 1142.5 40.082 1142.26 40.082ZM1142.88 41.328V49H1141.61V41.328H1142.88ZM1146.6 42.378V46.9C1146.6 47.2733 1146.68 47.5393 1146.84 47.698C1147 47.8473 1147.28 47.922 1147.67 47.922H1148.61V49H1147.46C1146.75 49 1146.22 48.8367 1145.86 48.51C1145.51 48.1833 1145.33 47.6467 1145.33 46.9V42.378H1144.34V41.328H1145.33V39.396H1146.6V41.328H1148.61V42.378H1146.6ZM1157.15 44.87C1157.15 45.1127 1157.14 45.3693 1157.11 45.64H1150.98C1151.02 46.396 1151.28 46.9887 1151.75 47.418C1152.22 47.838 1152.8 48.048 1153.47 48.048C1154.02 48.048 1154.48 47.922 1154.84 47.67C1155.21 47.4087 1155.47 47.0633 1155.62 46.634H1157C1156.79 47.3713 1156.38 47.9733 1155.76 48.44C1155.15 48.8973 1154.38 49.126 1153.47 49.126C1152.74 49.126 1152.09 48.9627 1151.51 48.636C1150.94 48.3093 1150.49 47.8473 1150.16 47.25C1149.84 46.6433 1149.67 45.9433 1149.67 45.15C1149.67 44.3567 1149.83 43.6613 1150.15 43.064C1150.47 42.4667 1150.91 42.0093 1151.48 41.692C1152.06 41.3653 1152.72 41.202 1153.47 41.202C1154.2 41.202 1154.84 41.3607 1155.4 41.678C1155.96 41.9953 1156.39 42.434 1156.69 42.994C1157 43.5447 1157.15 44.17 1157.15 44.87ZM1155.83 44.604C1155.83 44.1187 1155.73 43.7033 1155.51 43.358C1155.3 43.0033 1155 42.7373 1154.63 42.56C1154.27 42.3733 1153.86 42.28 1153.41 42.28C1152.77 42.28 1152.22 42.4853 1151.76 42.896C1151.31 43.3067 1151.06 43.876 1150.99 44.604H1155.83ZM1168.06 41.188C1168.66 41.188 1169.19 41.314 1169.65 41.566C1170.12 41.8087 1170.49 42.1773 1170.76 42.672C1171.03 43.1667 1171.17 43.7687 1171.17 44.478V49H1169.91V44.66C1169.91 43.8947 1169.71 43.3113 1169.33 42.91C1168.96 42.4993 1168.45 42.294 1167.81 42.294C1167.14 42.294 1166.62 42.5087 1166.22 42.938C1165.83 43.358 1165.64 43.9693 1165.64 44.772V49H1164.38V44.66C1164.38 43.8947 1164.18 43.3113 1163.8 42.91C1163.43 42.4993 1162.92 42.294 1162.28 42.294C1161.61 42.294 1161.09 42.5087 1160.69 42.938C1160.3 43.358 1160.11 43.9693 1160.11 44.772V49H1158.83V41.328H1160.11V42.434C1160.36 42.0327 1160.69 41.7247 1161.11 41.51C1161.54 41.2953 1162.01 41.188 1162.53 41.188C1163.17 41.188 1163.74 41.3327 1164.24 41.622C1164.73 41.9113 1165.1 42.336 1165.34 42.896C1165.56 42.3547 1165.91 41.9347 1166.41 41.636C1166.9 41.3373 1167.45 41.188 1168.06 41.188Z" fill="#69697B"/>
<path d="M1240.21 50.5735L1236.4 46.6129C1237.38 45.449 1237.92 43.9846 1237.92 42.46C1237.92 38.898 1235.02 36 1231.46 36C1227.9 36 1225 38.898 1225 42.46C1225 46.022 1227.9 48.92 1231.46 48.92C1232.8 48.92 1234.07 48.5167 1235.16 47.751L1239 51.7416C1239.16 51.9082 1239.37 52 1239.61 52C1239.82 52 1240.03 51.9166 1240.19 51.7649C1240.52 51.4428 1240.53 50.9085 1240.21 50.5735ZM1231.46 37.6852C1234.09 37.6852 1236.23 39.8271 1236.23 42.46C1236.23 45.0929 1234.09 47.2348 1231.46 47.2348C1228.83 47.2348 1226.69 45.0929 1226.69 42.46C1226.69 39.8271 1228.83 37.6852 1231.46 37.6852Z" fill="#69697B"/>
<line x1="1208.5" y1="31.5" x2="1208.5" y2="55.5" stroke="#69697B" stroke-opacity="0.1" stroke-linecap="round"/>
<path d="M1283.92 42.9565H1296.39L1298.3 56H1282L1283.92 42.9565Z" stroke="#232323" stroke-linejoin="round"/>
<path d="M1293.96 45.1304V41.3261C1293.96 39.225 1292.25 37.5217 1290.15 37.5217V37.5217C1288.05 37.5217 1286.35 39.225 1286.35 41.3261V45.1304" stroke="#232323"/>
<g filter="url(#filter1_d_3119_3100)">
<circle cx="1298.3" cy="38.6087" r="7.6087" fill="#F94A3D"/>
</g>
<path d="M1298.1 42H1299.22V40.48H1300.15V39.49H1299.22V34.8H1297.84L1294.48 39.62V40.48H1298.1V42ZM1295.79 39.49L1298.15 35.96V39.49H1295.79Z" fill="white"/>
<defs>
<filter id="filter0_d_3119_3100" x="1005" y="0" width="282" height="100" filterUnits="userSpaceOnUse" color-interpolation-filters="sRGB">
<feFlood flood-opacity="0" result="BackgroundImageFix"/>
<feColorMatrix in="SourceAlpha" type="matrix" values="0 0 0 0 0 0 0 0 0 0 0 0 0 0 0 0 0 0 127 0" result="hardAlpha"/>
<feOffset dy="6"/>
<feGaussianBlur stdDeviation="15"/>
<feColorMatrix type="matrix" values="0 0 0 0 0 0 0 0 0 0 0 0 0 0 0 0 0 0 0.04 0"/>
<feBlend mode="normal" in2="BackgroundImageFix" result="effect1_dropShadow_3119_3100"/>
<feBlend mode="normal" in="SourceGraphic" in2="effect1_dropShadow_3119_3100" result="shape"/>
</filter>
<filter id="filter1_d_3119_3100" x="1281.7" y="26" width="33.2174" height="33.2173" filterUnits="userSpaceOnUse" color-interpolation-filters="sRGB">
<feFlood flood-opacity="0" result="BackgroundImageFix"/>
<feColorMatrix in="SourceAlpha" type="matrix" values="0 0 0 0 0 0 0 0 0 0 0 0 0 0 0 0 0 0 127 0" result="hardAlpha"/>
<feOffset dy="4"/>
<feGaussianBlur stdDeviation="4.5"/>
<feColorMatrix type="matrix" values="0 0 0 0 0.92549 0 0 0 0 0.407843 0 0 0 0 0.152941 0 0 0 0.15 0"/>
<feBlend mode="normal" in2="BackgroundImageFix" result="effect1_dropShadow_3119_3100"/>
<feBlend mode="normal" in="SourceGraphic" in2="effect1_dropShadow_3119_3100" result="shape"/>
</filter>
</defs>
</svg>
